<?xml version="1.0" standalone="no"?>
<!DOCTYPE svg PUBLIC "-//W3C//DTD SVG 1.1//EN" "http://www.w3.org/Graphics/SVG/1.1/DTD/svg11.dtd">
<svg class="icon" width="32" height="32" viewBox="0 0 1024 1024" version="1.1" xmlns="http://www.w3.org/2000/svg">
	<path fill="#888" d="M508.064 543.872c-120.576 0-220.128-37.184-246.368-85.024-5.248 10.624-10.496 15.936-10.496 26.56v79.648c0 58.496 115.328 106.304 256.864 106.304s256.864-47.808 256.864-106.304v-79.648c0-10.656-5.248-15.968-10.464-26.56-26.208 47.84-125.792 85.024-246.4 85.024M508.064 702.304c-120.576 0-220.128-31.328-246.368-78.176-5.248 5.184-10.496 15.616-10.496 20.8v78.24c0 62.56 115.328 109.504 256.864 109.504s256.864-46.944 256.864-109.504v-78.24c0-5.184-5.248-15.616-10.464-20.8-26.208 46.88-125.792 78.176-246.4 78.176M754.464 301.44c-5.248 47.52-110.08 79.168-246.4 79.168-131.008 0-241.12-31.648-246.368-79.168-5.248 10.56-10.496 15.84-10.496 26.4v79.2c0 58.08 115.328 110.848 256.864 110.848s256.864-52.768 256.864-110.848v-79.2c0-10.56-5.248-15.84-10.464-26.4M251.2 286.656c7.904-57.504 120.256-95.36 258.848-95.36s250.912 37.888 250.912 84.608c0 46.72-112.352 84.64-250.912 84.64S259.104 322.592 251.2 286.656" />
</svg>
